<?xml version="1.0" encoding="UTF-8"?>
<svg version="1.1" xmlns="http://www.w3.org/2000/svg" width="64" height="64">
<path d="M0 0 C1.21796265 -0.00315216 2.43592529 -0.00630432 3.6907959 -0.009552 C5.03019242 -0.00776222 6.36958862 -0.00571127 7.70898438 -0.00341797 C9.07279477 -0.00409106 10.43660505 -0.00506114 11.80041504 -0.00631714 C14.66203959 -0.00779385 17.52363297 -0.00564044 20.38525391 -0.00097656 C24.06092051 0.00472073 27.73651411 0.00144157 31.41217804 -0.00454903 C34.22935541 -0.00815538 37.04651535 -0.00701571 39.86369324 -0.00442123 C41.21933501 -0.00375217 42.57497834 -0.00457968 43.93061829 -0.00690079 C45.82223482 -0.00942848 47.71385687 -0.00489561 49.60546875 0 C51.2231012 0.00119339 51.2231012 0.00119339 52.87341309 0.00241089 C55.30273438 0.12939453 55.30273438 0.12939453 56.30273438 1.12939453 C56.34366375 3.46236886 56.34515161 5.79644678 56.30273438 8.12939453 C54.32273438 8.78939453 52.34273437 9.44939453 50.30273438 10.12939453 C50.96273437 10.78939453 51.62273438 11.44939453 52.30273438 12.12939453 C52.30273438 13.11939453 52.30273438 14.10939453 52.30273438 15.12939453 C53.62273438 15.78939453 54.94273438 16.44939453 56.30273438 17.12939453 C56.30273438 19.43939453 56.30273438 21.74939453 56.30273438 24.12939453 C54.32273437 25.11939453 54.32273437 25.11939453 52.30273438 26.12939453 C52.30273438 28.76939453 52.30273438 31.40939453 52.30273438 34.12939453 C53.62273438 34.78939453 54.94273438 35.44939453 56.30273438 36.12939453 C56.30273438 38.10939453 56.30273438 40.08939453 56.30273438 42.12939453 C55.34367187 42.46970703 55.34367187 42.46970703 54.36523438 42.81689453 C52.05281079 43.97267576 52.05281079 43.97267576 51.55273438 46.62939453 C51.26956647 49.04232878 51.26956647 49.04232878 51.30273438 51.12939453 C52.29273438 51.78939453 53.28273437 52.44939453 54.30273438 53.12939453 C54.55273438 55.69189453 54.55273438 55.69189453 54.30273438 58.12939453 C52.57205738 59.86007152 50.23784633 59.25695982 47.88085938 59.25878906 C46.72295898 59.26194122 45.56505859 59.26509338 44.37207031 59.26834106 C42.48149902 59.26530472 42.48149902 59.26530472 40.55273438 59.26220703 C39.26915039 59.26316376 37.98556641 59.26412048 36.66308594 59.2651062 C33.94269614 59.26658284 31.22233912 59.26442972 28.50195312 59.25976562 C25.00788768 59.25406834 21.51389905 59.25734753 18.01983643 59.26333809 C14.69746285 59.26781208 11.37511014 59.26468338 8.05273438 59.26220703 C6.79235352 59.26423126 5.53197266 59.26625549 4.23339844 59.26834106 C3.07549805 59.2651889 1.91759766 59.26203674 0.72460938 59.25878906 C-0.30051758 59.25799347 -1.32564453 59.25719788 -2.38183594 59.25637817 C-4.69726562 59.12939453 -4.69726562 59.12939453 -5.69726562 58.12939453 C-5.73807345 56.12981089 -5.73980919 54.12894199 -5.69726562 52.12939453 C-3.71726562 51.63439453 -3.71726562 51.63439453 -1.69726562 51.12939453 C-2.35726563 50.13939453 -3.01726563 49.14939453 -3.69726562 48.12939453 C-3.82226562 44.94189453 -3.82226562 44.94189453 -3.69726562 42.12939453 C-5.01726563 41.46939453 -6.33726563 40.80939453 -7.69726562 40.12939453 C-7.69726562 38.14939453 -7.69726562 36.16939453 -7.69726562 34.12939453 C-6.37726562 33.46939453 -5.05726562 32.80939453 -3.69726562 32.12939453 C-3.69726562 29.15939453 -3.69726562 26.18939453 -3.69726562 23.12939453 C-5.01726563 22.79939453 -6.33726563 22.46939453 -7.69726562 22.12939453 C-7.69726562 20.14939453 -7.69726562 18.16939453 -7.69726562 16.12939453 C-6.37726562 15.79939453 -5.05726562 15.46939453 -3.69726562 15.12939453 C-3.61476563 14.51064453 -3.53226562 13.89189453 -3.44726562 13.25439453 C-2.69726562 11.12939453 -2.69726562 11.12939453 -0.63476562 9.87939453 C0.00460938 9.63189453 0.64398438 9.38439453 1.30273438 9.12939453 C0.16835937 8.98501953 -0.96601563 8.84064453 -2.13476562 8.69189453 C-5.69726562 8.12939453 -5.69726562 8.12939453 -6.69726562 7.12939453 C-6.82226562 4.12939453 -6.82226562 4.12939453 -6.69726562 1.12939453 C-4.93002752 -0.63784358 -2.39407722 0.0017662 0 0 Z " fill="#FFF5D5" transform="translate(7.697265625,1.87060546875)"/>
<path d="M0 0 C18.48 0 36.96 0 56 0 C56 3.3 56 6.6 56 10 C55.34 10.66 54.68 11.32 54 12 C54.66 12.391875 55.32 12.78375 56 13.1875 C58 15 58 15 58.3125 17.625 C58 20 58 20 57 21 C55.19490627 21.09899561 53.38593072 21.12799151 51.578125 21.12939453 C50.42022461 21.13254669 49.26232422 21.13569885 48.06933594 21.13894653 C46.17876465 21.13591019 46.17876465 21.13591019 44.25 21.1328125 C42.96641602 21.13376923 41.68283203 21.13472595 40.36035156 21.13571167 C37.63996176 21.13718831 34.91960475 21.13503519 32.19921875 21.13037109 C28.70515331 21.12467381 25.21116467 21.12795299 21.71710205 21.13394356 C18.39472847 21.13841754 15.07237577 21.13528885 11.75 21.1328125 C10.48961914 21.13483673 9.22923828 21.13686096 7.93066406 21.13894653 C6.77276367 21.13579437 5.61486328 21.13264221 4.421875 21.12939453 C3.39674805 21.12859894 2.37162109 21.12780334 1.31542969 21.12698364 C-1 21 -1 21 -2 20 C-2.04080783 18.00041636 -2.04254356 15.99954746 -2 14 C-0.68 13.67 0.64 13.34 2 13 C1.34 12.01 0.68 11.02 0 10 C0 6.7 0 3.4 0 0 Z " fill="#FFF4D5" transform="translate(4,40)"/>
<path d="M0 0 C1.12591553 0.00523682 2.25183105 0.01047363 3.41186523 0.01586914 C4.62680664 0.0190918 5.84174805 0.02231445 7.09350586 0.02563477 C8.37290039 0.03401367 9.65229492 0.04239258 10.97045898 0.05102539 C12.2537207 0.05553711 13.53698242 0.06004883 14.85913086 0.06469727 C18.04211921 0.07652994 21.22501661 0.09301471 24.40795898 0.11352539 C24.52433934 3.36322309 24.59526479 6.61238369 24.65795898 9.86352539 C24.69147461 10.78391602 24.72499023 11.70430664 24.75952148 12.65258789 C24.77241211 13.54204102 24.78530273 14.43149414 24.79858398 15.34790039 C24.81953125 16.16484375 24.84047852 16.98178711 24.86206055 17.82348633 C24.22309887 21.04577695 23.03121463 22.17944867 20.40795898 24.11352539 C17.65893555 24.56762695 17.65893555 24.56762695 14.54858398 24.50415039 C13.43354492 24.49125977 12.31850586 24.47836914 11.16967773 24.46508789 C9.43137695 24.41481445 9.43137695 24.41481445 7.65795898 24.36352539 C6.48362305 24.34547852 5.30928711 24.32743164 4.09936523 24.30883789 C1.20188141 24.26172433 -1.69518297 24.18998205 -4.59204102 24.11352539 C-4.59204102 20.48352539 -4.59204102 16.85352539 -4.59204102 13.11352539 C-5.91204102 12.78352539 -7.23204102 12.45352539 -8.59204102 12.11352539 C-8.59204102 10.13352539 -8.59204102 8.15352539 -8.59204102 6.11352539 C-7.27204102 5.78352539 -5.95204102 5.45352539 -4.59204102 5.11352539 C-4.44766602 4.47415039 -4.30329102 3.83477539 -4.15454102 3.17602539 C-3.3320562 0.16024773 -3.20661599 0.14044235 0 0 Z " fill="#42A2E6" transform="translate(8.592041015625,11.886474609375)"/>
<path d="M0 0 C1.21796265 -0.00315216 2.43592529 -0.00630432 3.6907959 -0.009552 C5.03019242 -0.00776222 6.36958862 -0.00571127 7.70898438 -0.00341797 C9.07279477 -0.00409106 10.43660505 -0.00506114 11.80041504 -0.00631714 C14.66203959 -0.00779385 17.52363297 -0.00564044 20.38525391 -0.00097656 C24.06092051 0.00472073 27.73651411 0.00144157 31.41217804 -0.00454903 C34.22935541 -0.00815538 37.04651535 -0.00701571 39.86369324 -0.00442123 C41.21933501 -0.00375217 42.57497834 -0.00457968 43.93061829 -0.00690079 C45.82223482 -0.00942848 47.71385687 -0.00489561 49.60546875 0 C51.2231012 0.00119339 51.2231012 0.00119339 52.87341309 0.00241089 C55.30273438 0.12939453 55.30273438 0.12939453 56.30273438 1.12939453 C56.34366375 3.46236886 56.34515161 5.79644678 56.30273438 8.12939453 C54.32273438 8.78939453 52.34273437 9.44939453 50.30273438 10.12939453 C50.96273437 11.44939453 51.62273438 12.76939453 52.30273438 14.12939453 C43.39273438 14.12939453 34.48273437 14.12939453 25.30273438 14.12939453 C25.30273438 12.80939453 25.30273438 11.48939453 25.30273438 10.12939453 C24.7189502 10.13986816 24.13516602 10.1503418 23.53369141 10.16113281 C20.83175137 10.20327561 18.12988086 10.22890258 15.42773438 10.25439453 C14.50992187 10.27115234 13.59210937 10.28791016 12.64648438 10.30517578 C6.35090245 10.34951087 0.38752692 9.83451686 -5.69726562 8.12939453 C-6.69726562 7.12939453 -6.69726562 7.12939453 -6.82226562 4.12939453 C-6.60895644 -0.99002592 -4.61102994 0.00340173 0 0 Z " fill="#DEF9FF" transform="translate(7.697265625,1.87060546875)"/>
<path d="M0 0 C0.98136932 -0.00953201 1.96273865 -0.01906403 2.97384644 -0.02888489 C4.55517868 -0.02751778 4.55517868 -0.02751778 6.16845703 -0.02612305 C7.80332565 -0.03255074 7.80332565 -0.03255074 9.47122192 -0.03910828 C11.77605495 -0.04484938 14.08090609 -0.04535346 16.38574219 -0.04101562 C19.9060777 -0.0378599 23.42556941 -0.06130377 26.94580078 -0.08666992 C29.18668514 -0.0889434 31.42757175 -0.08964619 33.66845703 -0.08862305 C34.71863007 -0.09783279 35.7688031 -0.10704254 36.85079956 -0.11653137 C42.43211431 -0.08133266 46.31809393 0.21935144 51.05126953 3.2746582 C51.09399053 4.94077725 51.09190785 6.60848705 51.05126953 8.2746582 C49.32059254 10.00533519 46.98638149 9.40222349 44.62939453 9.40405273 C43.47149414 9.4072049 42.31359375 9.41035706 41.12060547 9.41360474 C39.23003418 9.41056839 39.23003418 9.41056839 37.30126953 9.4074707 C36.01768555 9.40842743 34.73410156 9.40938416 33.41162109 9.41036987 C30.6912313 9.41184651 27.97087428 9.40969339 25.25048828 9.4050293 C21.75642284 9.39933201 18.2624342 9.4026112 14.76837158 9.40860176 C11.445998 9.41307575 8.1236453 9.40994705 4.80126953 9.4074707 C3.54088867 9.40949493 2.28050781 9.41151917 0.98193359 9.41360474 C-0.1759668 9.41045258 -1.33386719 9.40730042 -2.52685547 9.40405273 C-3.55198242 9.40325714 -4.57710938 9.40246155 -5.63330078 9.40164185 C-7.94873047 9.2746582 -7.94873047 9.2746582 -8.94873047 8.2746582 C-8.9895383 6.27507457 -8.99127403 4.27420566 -8.94873047 2.2746582 C-5.84343025 0.46949681 -3.57619957 0.01913111 0 0 Z " fill="#DEF9FF" transform="translate(10.94873046875,51.725341796875)"/>
<path d="M0 0 C0.66 0 1.32 0 2 0 C2 0.66 2 1.32 2 2 C2.72218719 1.99555878 3.44437439 1.99111755 4.18844604 1.98654175 C10.98666022 1.94650625 17.78485684 1.91603662 24.58315849 1.89637566 C28.07843927 1.88592802 31.57362283 1.87175117 35.06884766 1.84912109 C39.08497056 1.82328047 43.10099097 1.81353534 47.1171875 1.8046875 C49.00472244 1.78920364 49.00472244 1.78920364 50.9303894 1.77340698 C52.09144196 1.77325592 53.25249451 1.77310486 54.44873047 1.77294922 C55.47465302 1.768508 56.50057556 1.76406677 57.55758667 1.75949097 C60 2 60 2 62 4 C62.125 7.125 62.125 7.125 62 10 C60.02 10.99 60.02 10.99 58 12 C58 10.02 58 8.04 58 6 C39.52 6 21.04 6 2 6 C2 7.32 2 8.64 2 10 C0.68 9.34 -0.64 8.68 -2 8 C-2.125 5.125 -2.125 5.125 -2 2 C-1.34 1.34 -0.68 0.68 0 0 Z " fill="#FFF5D5" transform="translate(2,34)"/>
<path d="M0 0 C18.48 0 36.96 0 56 0 C56 1.32 56 2.64 56 4 C37.52 4 19.04 4 0 4 C0 2.68 0 1.36 0 0 Z " fill="#FE5654" transform="translate(4,40)"/>
<path d="M0 0 C18.48 0 36.96 0 56 0 C55.34 1.32 54.68 2.64 54 4 C36.84 4 19.68 4 2 4 C1.34 2.68 0.68 1.36 0 0 Z " fill="#FE705E" transform="translate(4,48)"/>
<path d="M0 0 C0.66 0 1.32 0 2 0 C2 0.66 2 1.32 2 2 C9.92 2 17.84 2 26 2 C26.33 3.32 26.66 4.64 27 6 C18.75 6 10.5 6 2 6 C2 7.32 2 8.64 2 10 C0.68 9.34 -0.64 8.68 -2 8 C-2.125 5.125 -2.125 5.125 -2 2 C-1.34 1.34 -0.68 0.68 0 0 Z " fill="#FFF9E8" transform="translate(2,34)"/>
<path d="M0 0 C1.73600464 0.0314209 1.73600464 0.0314209 3.50708008 0.06347656 C5.3875 0.0828125 5.3875 0.0828125 7.3059082 0.10253906 C8.61624023 0.13605469 9.92657227 0.16957031 11.27661133 0.20410156 C12.61187143 0.22416849 13.94716016 0.24241894 15.2824707 0.25878906 C18.55207279 0.30600353 21.82023325 0.37184972 25.08911133 0.45410156 C25.08911133 1.77410156 25.08911133 3.09410156 25.08911133 4.45410156 C14.85911133 4.45410156 4.62911133 4.45410156 -5.91088867 4.45410156 C-2.91088867 0.45410156 -2.91088867 0.45410156 0 0 Z " fill="#FB565C" transform="translate(34.910888671875,31.5458984375)"/>
<path d="M0 0 C8.91 0 17.82 0 27 0 C27 1.32 27 2.64 27 4 C18.09 4 9.18 4 0 4 C0 2.68 0 1.36 0 0 Z " fill="#FFF5D5" transform="translate(33,28)"/>
<path d="M0 0 C8.91 0 17.82 0 27 0 C27 1.32 27 2.64 27 4 C18.09 4 9.18 4 0 4 C0 2.68 0 1.36 0 0 Z " fill="#FD5562" transform="translate(33,24)"/>
<path d="M0 0 C8.91 0 17.82 0 27 0 C27 1.32 27 2.64 27 4 C18.09 4 9.18 4 0 4 C0 2.68 0 1.36 0 0 Z " fill="#FB5569" transform="translate(33,16)"/>
<path d="M0 0 C8.25 0 16.5 0 25 0 C25.66 1.32 26.32 2.64 27 4 C18.09 4 9.18 4 0 4 C0 2.68 0 1.36 0 0 Z " fill="#FFF5D5" transform="translate(33,12)"/>
<path d="M0 0 C2.97922593 -0.02683987 5.95821295 -0.04676037 8.9375 -0.0625 C9.78763672 -0.07087891 10.63777344 -0.07925781 11.51367188 -0.08789062 C12.32255859 -0.09111328 13.13144531 -0.09433594 13.96484375 -0.09765625 C14.7137085 -0.10289307 15.46257324 -0.10812988 16.23413086 -0.11352539 C18 0 18 0 19 1 C22.62266294 1.28528471 26.24530434 1.44912228 29.875 1.62109375 C31.421875 1.80865234 31.421875 1.80865234 33 2 C33.495 2.99 33.495 2.99 34 4 C22.78 4 11.56 4 0 4 C0 2.68 0 1.36 0 0 Z " fill="#FFF9E8" transform="translate(4,44)"/>
<path d="M0 0 C7.26 0 14.52 0 22 0 C21.34 1.32 20.68 2.64 20 4 C12.74 4 5.48 4 -2 4 C-1.34 3.67 -0.68 3.34 0 3 C0 2.01 0 1.02 0 0 Z " fill="#FE5554" transform="translate(38,48)"/>
<path d="M0 0 C8.25 0 16.5 0 25 0 C24 2 24 2 21.5234375 3.1171875 C17.13421681 4.21692572 13.12562086 4.21831431 8.625 4.125 C7.79355469 4.11597656 6.96210938 4.10695313 6.10546875 4.09765625 C4.07018663 4.0742622 2.03505436 4.03839725 0 4 C0 2.68 0 1.36 0 0 Z " fill="#FE6F6C" transform="translate(4,40)"/>
<path d="M0 0 C1.98 0.99 1.98 0.99 4 2 C4 4.31 4 6.62 4 9 C2.02 9.99 2.02 9.99 0 11 C0 7.37 0 3.74 0 0 Z " fill="#E0F9FF" transform="translate(60,17)"/>
<path d="M0 0 C1.98 0.99 1.98 0.99 4 2 C4 3.98 4 5.96 4 8 C2.02 8.99 2.02 8.99 0 10 C0 6.7 0 3.4 0 0 Z " fill="#E0F9FF" transform="translate(60,36)"/>
<path d="M0 0 C0.66 0 1.32 0 2 0 C2 3.3 2 6.6 2 10 C0.68 9.34 -0.64 8.68 -2 8 C-2.125 5.125 -2.125 5.125 -2 2 C-1.34 1.34 -0.68 0.68 0 0 Z " fill="#E0F9FF" transform="translate(2,34)"/>
<path d="M0 0 C0.99 0 1.98 0 3 0 C3 2.64 3 5.28 3 8 C1.68 7.67 0.36 7.34 -1 7 C-1.04254356 5.00045254 -1.04080783 2.99958364 -1 1 C-0.67 0.67 -0.34 0.34 0 0 Z " fill="#E1F9FF" transform="translate(1,17)"/>
</svg>
